<svg xmlns="http://www.w3.org/2000/svg" width="92" height="23" fill="none"><g clip-path="url(#D)"><path d="M22.781 0H0V23H22.781V0Z" fill="url(#B)"/><path d="M13.592 16.084V3.417h1.394l6.273 19.703h-9.061l-4.879-4.222 6.273-2.815z" fill="url(#C)"/><g filter="url(#A)"><path d="M15.143 3.412v10.949c0 2.877-2.297 5.227-5.147 5.227S4.85 17.237 4.85 14.361h2.972c0 1.206.98 2.196 2.175 2.196s2.175-.99 2.175-2.196V6.412H9.997v-3h5.147z" fill="#fff"/></g></g><g clip-path="url(#E)" fill="#399"><path d="M33.476 12.407a7.65 7.65 0 0 1-.121 1.381 3.13 3.13 0 0 1-.463 1.186 2.43 2.43 0 0 1-.977.829c-.422.208-.975.311-1.66.311a3.43 3.43 0 0 1-2.025-.581c-.551-.387-.907-.992-1.069-1.817l1.004-.249a1.48 1.48 0 0 1 .728.015 1.5 1.5 0 0 1 .636.361c.181.168.417.261.662.261a.86.86 0 0 0 .599-.196 1.16 1.16 0 0 0 .314-.488c.068-.204.108-.416.121-.632l.022-.632V5.564h1.031a1.18 1.18 0 0 1 .842.356 1.23 1.23 0 0 1 .349.859l.006 5.629zm7.647 3.445h-1.309a.37.37 0 0 1-.263-.112c-.07-.072-.109-.168-.109-.269v-.578h-.029a2.37 2.37 0 0 1-.291.408 1.95 1.95 0 0 1-.436.363 2.45 2.45 0 0 1-.582.261 2.38 2.38 0 0 1-.713.102c-.453.018-.903-.07-1.318-.255a1.9 1.9 0 0 1-.784-.704 2.8 2.8 0 0 1-.371-1.062c-.064-.437-.095-.879-.093-1.321V9.17c0-.101.039-.198.109-.269a.37.37 0 0 1 .264-.112h1.392a.37.37 0 0 1 .263.112c.07.071.109.168.109.269v3.079l.022.632a2.05 2.05 0 0 0 .128.604.94.94 0 0 0 .376.482.91.91 0 0 0 .587.142 1.29 1.29 0 0 0 .669-.148 1.03 1.03 0 0 0 .393-.406 1.68 1.68 0 0 0 .177-.574 4.99 4.99 0 0 0 .044-.669V9.17a.38.38 0 0 1 .11-.269.37.37 0 0 1 .264-.112h1.391a.37.37 0 0 1 .264.112c.07.071.109.168.109.269v6.301c0 .05-.01.1-.028.146s-.046.088-.081.124-.076.063-.121.083-.094.029-.143.029zm9.737-.698l-.301.402a1.08 1.08 0 0 1-.361.305 1.06 1.06 0 0 1-.453.119 1.07 1.07 0 0 1-.84-.368l-.595-.684h-.028a2.45 2.45 0 0 1-.336.386 2.58 2.58 0 0 1-.484.356 2.94 2.94 0 0 1-.612.261 2.36 2.36 0 0 1-.692.102 3.51 3.51 0 0 1-1.396-.27 3.11 3.11 0 0 1-1.076-.755 3.37 3.37 0 0 1-.691-1.155 4.29 4.29 0 0 1-.243-1.468 4.55 4.55 0 0 1 .221-1.426 3.91 3.91 0 0 1 .627-1.198 3.09 3.09 0 0 1 .991-.836 2.78 2.78 0 0 1 1.327-.311 3.59 3.59 0 0 1 1.247.211 1.99 1.99 0 0 1 .948.719h.029v-4.05c0-.167.065-.327.181-.445a.61.61 0 0 1 .436-.184h.947a.61.61 0 0 1 .42.168.63.63 0 0 1 .195.415l.669 9.274c.01.155-.035.308-.128.431zm-2.55-2.832a1.85 1.85 0 0 0-.449-1.295c-.291-.329-.72-.494-1.261-.494s-.962.165-1.261.494a2.08 2.08 0 0 0 0 2.588c.3.329.72.494 1.261.494s.963-.165 1.261-.494c.309-.355.47-.819.449-1.293zm10.947 2.937c0 1.335-.355 2.327-.991 3.044-1.505 1.701-4.124 1.108-4.839.826-1.107-.436-2.63-1.498-2.775-2.239-.05-.253.097-.556.291-.823a1.39 1.39 0 0 1 .477-.389c.185-.092.388-.14.594-.142 1.389.082 1.018 1.885 3.2 1.885.679 0 1.139-.162 1.447-.486a1.72 1.72 0 0 0 .354-.574 1.74 1.74 0 0 0 .108-.669v-.682h-.028a2.04 2.04 0 0 1-.919.719 2.92 2.92 0 0 1-1.034.211 3.53 3.53 0 0 1-1.396-.268 3.11 3.11 0 0 1-1.076-.756 3.38 3.38 0 0 1-.691-1.155 4.25 4.25 0 0 1-.243-1.468c0-.465.075-.926.221-1.366a3.75 3.75 0 0 1 .627-1.177 3.16 3.16 0 0 1 .991-.822c.411-.213.866-.32 1.326-.311a3.25 3.25 0 0 1 .834.101 3.2 3.2 0 0 1 .676.262 2.47 2.47 0 0 1 .514.356 2.23 2.23 0 0 1 .342.384h.029v-.713a.22.22 0 0 1 .062-.153.21.21 0 0 1 .15-.063 1.73 1.73 0 0 1 .672.136 1.75 1.75 0 0 1 .569.388 1.79 1.79 0 0 1 .38.581 1.82 1.82 0 0 1 .133.685l-.004 4.68zm-5.382-2.979a1.73 1.73 0 0 0 .126.658c.084.208.209.398.365.557a1.89 1.89 0 0 0 .543.384 1.54 1.54 0 0 0 .676.148 1.57 1.57 0 0 0 .671-.148 1.88 1.88 0 0 0 .548-.384c.157-.159.281-.348.366-.557s.129-.432.129-.657a1.74 1.74 0 0 0-.129-.657c-.085-.208-.209-.397-.366-.557s-.345-.291-.548-.386a1.59 1.59 0 0 0-.671-.148c-.233-.002-.464.049-.676.148a1.89 1.89 0 0 0-.543.386 1.72 1.72 0 0 0-.498 1.21l.006.003zm12.971 2.061c.05.038.092.087.122.143a.46.46 0 0 1 .053.182c.005.064-.005.128-.027.188a.45.45 0 0 1-.101.159 3.45 3.45 0 0 1-.956.649c-.51.239-1.064.363-1.625.363a4.29 4.29 0 0 1-1.504-.263c-.452-.162-.869-.414-1.225-.741-.35-.328-.629-.726-.82-1.17a4.03 4.03 0 0 1 0-3.052 3.5 3.5 0 0 1 .82-1.17 3.6 3.6 0 0 1 1.225-.749 4.29 4.29 0 0 1 1.504-.261 3.35 3.35 0 0 1 1.347.261c.394.167.745.423 1.027.749a3.43 3.43 0 0 1 .649 1.17 4.81 4.81 0 0 1 .228 1.526v.05a.64.64 0 0 1-.183.447c-.116.118-.274.185-.439.185h-4.34a1.74 1.74 0 0 0 .56.989c.296.251.671.383 1.056.371a1.59 1.59 0 0 0 .89-.239 2.7 2.7 0 0 0 .236-.178c.126-.113.286-.18.454-.188a.74.74 0 0 1 .471.141l.577.436zm-1.421-2.818a1.29 1.29 0 0 0-.082-.51 1.27 1.27 0 0 0-.275-.434c-.123-.13-.272-.232-.437-.3s-.341-.099-.519-.093c-.215-.004-.428.035-.627.116a1.63 1.63 0 0 0-.464.297 1.33 1.33 0 0 0-.291.423 1.42 1.42 0 0 0-.122.501l2.816.002zm25.858 2.818c.05.038.092.087.122.143a.45.45 0 0 1 .053.182.46.46 0 0 1-.027.188.45.45 0 0 1-.101.159 3.45 3.45 0 0 1-.956.649c-.51.239-1.064.363-1.625.363a4.29 4.29 0 0 1-1.504-.263c-.452-.162-.869-.414-1.225-.741-.35-.328-.629-.726-.82-1.17a4.03 4.03 0 0 1 0-3.052 3.5 3.5 0 0 1 .82-1.17 3.61 3.61 0 0 1 1.225-.749 4.29 4.29 0 0 1 1.504-.261 3.35 3.35 0 0 1 1.347.261c.394.167.745.423 1.027.749a3.43 3.43 0 0 1 .649 1.17A4.82 4.82 0 0 1 92 12.327v.05a.64.64 0 0 1-.183.447c-.116.118-.274.185-.439.185h-4.341a1.74 1.74 0 0 0 .56.989c.296.251.671.383 1.056.371a1.59 1.59 0 0 0 .89-.239 2.7 2.7 0 0 0 .236-.178c.126-.113.286-.18.454-.188a.74.74 0 0 1 .471.141l.578.436zm-1.421-2.818a1.29 1.29 0 0 0-.082-.51 1.27 1.27 0 0 0-.275-.434c-.123-.13-.272-.232-.437-.3s-.341-.099-.519-.093c-.214-.004-.428.035-.627.116a1.63 1.63 0 0 0-.464.297 1.33 1.33 0 0 0-.291.423c-.069.159-.112.328-.122.501l2.816.002zm-20.959 3.079c-.001-.179.033-.357.099-.523.063-.161.158-.307.278-.429a1.26 1.26 0 0 1 .421-.283 1.36 1.36 0 0 1 1.018 0 1.28 1.28 0 0 1 .698.712c.134.336.134.711 0 1.047a1.28 1.28 0 0 1-.271.43 1.24 1.24 0 0 1-.422.282 1.34 1.34 0 0 1-1.018 0c-.158-.064-.302-.161-.422-.283s-.214-.269-.278-.428c-.068-.166-.103-.344-.105-.524zm4.235-5.813h.767a.92.92 0 0 1 .358.073.93.93 0 0 1 .304.207.96.96 0 0 1 .203.31.97.97 0 0 1 .071.365h.029a1.78 1.78 0 0 1 .291-.406 2.05 2.05 0 0 1 .436-.363c.182-.112.378-.2.582-.262a2.44 2.44 0 0 1 .713-.101 2.66 2.66 0 0 1 1.29.304 1.93 1.93 0 0 1 .85.959 2.32 2.32 0 0 1 .897-.973 2.65 2.65 0 0 1 1.297-.297 2.59 2.59 0 0 1 1.175.239 1.94 1.94 0 0 1 .756.654 2.82 2.82 0 0 1 .399.974 5.7 5.7 0 0 1 .121 1.198v3.814a.36.36 0 0 1-.103.253c-.066.067-.155.105-.248.105H81.89a.35.35 0 0 1-.249-.104c-.033-.033-.059-.073-.076-.116s-.027-.09-.027-.137V11.74a1.66 1.66 0 0 0-.207-.851c-.138-.237-.38-.356-.727-.356a1.4 1.4 0 0 0-.62.123c-.16.077-.297.195-.399.343a1.41 1.41 0 0 0-.214.509 2.77 2.77 0 0 0-.064.609v3.366c0 .098-.039.192-.107.261a.36.36 0 0 1-.257.108h-1.412a.37.37 0 0 1-.139-.028.35.35 0 0 1-.117-.08.37.37 0 0 1-.079-.12.38.38 0 0 1-.028-.141v-3.366l-.014-.464c-.008-.178-.042-.355-.1-.523a1 1 0 0 0-.278-.421.81.81 0 0 0-.563-.175 1.29 1.29 0 0 0-.669.148 1.03 1.03 0 0 0-.393.406 1.68 1.68 0 0 0-.177.575 4.93 4.93 0 0 0-.044.667v3.16a.36.36 0 0 1-.103.253c-.066.067-.155.105-.248.105h-1.437c-.093 0-.182-.038-.248-.105a.36.36 0 0 1-.103-.253V9.147a.36.36 0 0 1 .101-.251c.064-.067.152-.105.244-.107z"/></g><defs><filter id="A" x="1.682" y="1.3" width="15.574" height="21.457" filterUnits="userSpaceOnUse" color-interpolation-filters="sRGB"><feFlood flood-opacity="0" result="A"/><feColorMatrix in="SourceAlpha" values="0 0 0 0 0 0 0 0 0 0 0 0 0 0 0 0 0 0 127 0" result="B"/><feOffset dx="-0.528047" dy="0.528047"/><feGaussianBlur stdDeviation="1.32"/><feComposite in2="B" operator="out"/><feColorMatrix values="0 0 0 0 0 0 0 0 0 0 0 0 0 0 0 0 0 0 0.25 0"/><feBlend in2="A"/><feBlend in="SourceGraphic"/></filter><linearGradient id="B" x1="11.391" y1="0" x2="11.391" y2="23" gradientUnits="userSpaceOnUse"><stop stop-color="#399"/><stop offset="1" stop-color="#2d8396"/></linearGradient><radialGradient id="C" cx="0" cy="0" r="1" gradientUnits="userSpaceOnUse" gradientTransform="translate(14.2892 13.2689) rotate(64.0418) scale(18.6884 13.2707)"><stop stop-color="#395f5f"/><stop offset="1" stop-color="#278888" stop-opacity="0"/></radialGradient><clipPath id="D"><path fill="#fff" d="M0 0h22.781v23H0z"/></clipPath><clipPath id="E"><path fill="#fff" transform="translate(27.162 4.865)" d="M0 0h64.838v14.596H0z"/></clipPath></defs></svg>